<?xml version="1.0" encoding="utf-8"?>
<!-- Generator: Adobe Illustrator 19.2.1, SVG Export Plug-In . SVG Version: 6.00 Build 0)  -->
<svg version="1.1" id="layer" xmlns="http://www.w3.org/2000/svg" xmlns:xlink="http://www.w3.org/1999/xlink" x="0px" y="0px"
	 viewBox="0 0 652 652" style="enable-background:new 0 0 652 652;" xml:space="preserve">
<path d="M69.7,285.8h8.5v4.6h0.2c2.1-3.4,5.9-5.5,10-5.5c9.5,0,11.9,5.4,11.9,13.5v20.2h-9V300c0-5.4-1.6-8.1-5.7-8.1
	c-4.9,0-6.9,2.7-6.9,9.4v17.2h-9V285.8z M114.1,282.3h-9v-9h9V282.3z M105.2,285.8h9v32.8h-9V285.8z M137.9,318.6h-10l-11.2-32.8
	h9.4l6.9,22.4h0.1l6.9-22.4h8.9L137.9,318.6z M158.2,304.4c0.3,5.7,3,8.3,8,8.3c3,0.2,5.8-1.5,7.1-4.3h7.9
	c-1.7,6.9-8.2,11.5-15.3,11c-10.3,0-16.7-7.1-16.7-17.2c-0.5-9,6.4-16.8,15.5-17.3c0.4,0,0.8,0,1.2,0c11.1,0,16.5,9.4,15.8,19.5
	H158.2z M172.8,298.7c-0.8-4.6-2.8-7-7.1-7c-3.9-0.2-7.2,2.8-7.4,6.7c0,0.1,0,0.2,0,0.3H172.8z M185.2,285.8h8.5v6.1h0.1
	c1.8-4.2,5.9-6.9,10.4-7c0.7,0,1.3,0.1,2,0.3v8.4c-1.1-0.2-2.1-0.3-3.2-0.3c-6.6,0-8.8,4.8-8.8,10.5v14.8h-9L185.2,285.8z
	 M215.7,307.9c0.1,3.9,3.3,5.5,6.9,5.5c2.6,0,5.9-1,5.9-4.2c0-2.7-3.7-3.7-10.2-5.1c-5.2-1.1-10.3-3-10.3-8.7
	c0-8.4,7.2-10.5,14.2-10.5c7.1,0,13.7,2.4,14.4,10.5H228c-0.3-3.5-2.9-4.4-6.1-4.4c-2,0-5,0.4-5,3c0,3.2,5.1,3.7,10.2,4.9
	c5.2,1.2,10.3,3.1,10.3,9.2c0,8.6-7.4,11.4-14.9,11.4c-7.6,0-15-2.9-15.3-11.5H215.7z M250.3,282.3h-9v-9h9V282.3z M241.3,285.8h9
	v32.8h-9V285.8z M267.1,285.8h6.6v6h-6.6V308c0,3,0.8,3.8,3.8,3.8c0.9,0,1.9-0.1,2.8-0.3v7c-1.7,0.2-3.5,0.3-5.2,0.3
	c-5.5,0-10.3-1.3-10.3-7.8v-19.3h-5.4v-6h5.4V276h9L267.1,285.8z M294.7,322.7c-2,5.3-5.1,7.4-11.2,7.4c-1.8,0-3.7-0.1-5.5-0.3v-7.4
	c1.7,0.2,3.5,0.3,5.2,0.3c2.3-0.4,3.9-2.6,3.5-4.9c-0.1-0.4-0.2-0.9-0.4-1.3l-11.5-30.7h9.6l7.4,22.4h0.1l7.1-22.4h9.3L294.7,322.7z
	 M336.6,284.9c10.3,0,16.9,6.8,16.9,17.3c0,10.4-6.6,17.2-16.9,17.2c-10.2,0-16.9-6.8-16.9-17.2
	C319.7,291.8,326.3,284.9,336.6,284.9z M336.6,312.7c6.1,0,7.9-5.3,7.9-10.5c0-5.3-1.8-10.5-7.9-10.5c-6.1,0-7.9,5.3-7.9,10.5
	C328.7,307.4,330.5,312.7,336.6,312.7L336.6,312.7z M359.3,291.8H354v-6h5.4v-2.5c0-5.8,3.6-10,10.9-10c1.6,0,3.2,0.2,4.7,0.3v6.7
	c-1.1-0.1-2.2-0.2-3.3-0.2c-2.4,0-3.4,1-3.4,3.7v2h6.2v6h-6.2v26.8h-9V291.8z M77.7,360.8c0.3,5.7,3,8.3,8,8.3
	c3,0.2,5.8-1.5,7.1-4.2h7.9c-1.8,6.9-8.2,11.5-15.3,11c-10.3,0-16.7-7.1-16.7-17.2c-0.5-9,6.4-16.8,15.5-17.3c0.4,0,0.8,0,1.2,0
	c11.1,0,16.5,9.4,15.8,19.5H77.7z M92.2,355.1c-0.8-4.6-2.8-7-7.1-7c-3.9-0.2-7.2,2.8-7.4,6.7c0,0.1,0,0.2,0,0.3H92.2z M104.3,342.2
	h8.5v6.1h0.1c1.8-4.2,5.9-6.9,10.4-7c0.7,0,1.3,0.1,2,0.3v8.4c-1.1-0.2-2.1-0.3-3.2-0.3c-6.6,0-8.8,4.8-8.8,10.5V375h-9L104.3,342.2
	z M148,348.2h-6.6v16.2c0,3,0.8,3.8,3.8,3.8c0.9,0,1.9-0.1,2.8-0.2v7c-1.7,0.2-3.5,0.3-5.2,0.3c-5.5,0-10.3-1.3-10.3-7.8v-19.3h-5.4
	v-6h5.4v-9.8h9v9.8h11.9v-2.5c0-5.8,3.6-10,10.9-10c1.6,0,3.2,0.2,4.7,0.3v6.7c-1.1-0.1-2.2-0.2-3.3-0.2c-2.4,0-3.4,1-3.4,3.7v2h6.2
	v6h-6.2V375h-9v-26.8L148,348.2z M187.3,341.3c10.3,0,16.9,6.8,16.9,17.3c0,10.4-6.6,17.2-16.9,17.2c-10.2,0-16.8-6.8-16.8-17.2
	C170.4,348.2,177.1,341.3,187.3,341.3z M187.3,369.1c6.1,0,7.9-5.3,7.9-10.5c0-5.3-1.8-10.5-7.9-10.5c-6.1,0-7.9,5.3-7.9,10.5
	C179.4,363.8,181.2,369.1,187.3,369.1z M208.1,342.2h8.5v6.1h0.1c1.8-4.2,5.9-6.9,10.4-7c0.7,0,1.3,0.1,2,0.3v8.4
	c-1.1-0.2-2.1-0.3-3.2-0.3c-6.6,0-8.8,4.8-8.8,10.5V375h-9L208.1,342.2z M253.9,370.8h-0.1c-2.1,3.4-5.9,5.3-9.9,5.1
	c-9.8,0-14.6-8.5-14.6-17.6c0-8.8,4.9-17,14.4-17c3.8-0.1,7.5,1.7,9.7,4.9h0.1v-16.5h9V375h-8.5L253.9,370.8z M246.1,348.1
	c-5.9,0-7.9,5.1-7.9,10.5c0,5.1,2.3,10.5,7.9,10.5c5.9,0,7.7-5.2,7.7-10.6C253.8,353.2,251.9,348.1,246.1,348.1L246.1,348.1z
	 M274.2,364.3c0.1,3.9,3.3,5.5,6.9,5.5c2.6,0,5.9-1,5.9-4.2c0-2.7-3.7-3.7-10.2-5.1c-5.2-1.1-10.3-3-10.3-8.7
	c0-8.4,7.2-10.5,14.2-10.5c7.1,0,13.7,2.4,14.4,10.5h-8.5c-0.3-3.5-2.9-4.4-6.1-4.4c-2,0-5,0.4-5,3c0,3.2,5.1,3.7,10.2,4.9
	c5.2,1.2,10.3,3.1,10.3,9.2c0,8.6-7.4,11.4-14.9,11.4c-7.6,0-15-2.9-15.3-11.5L274.2,364.3z M299.3,329.7h9v17.1h0.2
	c2-3.3,5.6-5.4,9.5-5.4c9.5,0,11.9,5.4,11.9,13.5V375h-9v-18.5c0-5.4-1.6-8-5.7-8c-4.9,0-6.9,2.7-6.9,9.4V375h-9L299.3,329.7z
	 M344,338.7h-9v-9h9V338.7z M335.1,342.2h9V375h-9V342.2z M349.2,342.2h8.5v6.1h0.1c1.8-4.2,5.9-6.9,10.4-7c0.7,0,1.3,0.1,2,0.3v8.4
	c-1.1-0.2-2.1-0.3-3.2-0.3c-6.6,0-8.8,4.8-8.8,10.5V375h-9L349.2,342.2z M378.7,360.8c0.3,5.7,3,8.3,8,8.3c3,0.2,5.8-1.5,7.1-4.2
	h7.9c-1.8,6.9-8.2,11.5-15.3,11c-10.3,0-16.7-7.1-16.7-17.2c-0.5-9,6.4-16.8,15.5-17.3c0.4,0,0.8,0,1.2,0c11.1,0,16.5,9.4,15.8,19.5
	H378.7z M393.3,355.1c-0.8-4.6-2.8-7-7.1-7c-3.9-0.2-7.2,2.8-7.4,6.7c0,0.1,0,0.2,0,0.3H393.3z M516.3,273.1h-33.7v60.5
	c0,9.5-4.9,17.2-16.9,17.2c-11.9,0-16.9-7.7-16.9-17.2v-60.5H415v63.6c0,27.1,18.4,42.1,50.6,42.1c32.3,0,50.6-15.1,50.6-42.1
	C516.3,336.5,516.3,273.1,516.3,273.1z M524.8,273.2h33.7V307h33.8v-33.9H626v101.8h-33.8V341h-33.8v33.9h-33.7L524.8,273.2z
	 M64.5,273.3h-9.9v28.6c0.1,5.1-4,9.4-9.2,9.5c-5.1,0.1-9.4-4-9.5-9.2c0-0.1,0-0.2,0-0.3v-28.6H26v29.9c0,9,8.6,16.3,19.2,16.3
	s19.2-7.3,19.2-16.3V273.3z M54.6,347.3H36v-17.7H26v45.3H36v-17.7h18.6v17.7h9.9v-45.3h-9.9L54.6,347.3z"/>
</svg>
