<?xml version="1.0" standalone="no"?>
<!DOCTYPE svg PUBLIC "-//W3C//DTD SVG 20010904//EN"
 "http://www.w3.org/TR/2001/REC-SVG-20010904/DTD/svg10.dtd">
<svg version="1.0" xmlns="http://www.w3.org/2000/svg"
 width="200.000000pt" height="200.000000pt" viewBox="0 0 200.000000 200.000000"
 preserveAspectRatio="xMidYMid meet">

<g transform="translate(0.000000,200.000000) scale(0.100000,-0.100000)"
fill="#000000" stroke="none">
<path d="M22 1153 c4 -291 7 -345 22 -388 54 -155 190 -239 406 -252 251 -15
436 81 490 254 18 60 20 92 20 394 l0 329 -154 0 -155 0 -3 -312 c-3 -312 -3
-313 -27 -347 -56 -78 -182 -82 -251 -6 l-25 27 -3 319 -3 319 -160 0 -161 0
4 -337z"/>
<path d="M1040 1020 l0 -470 155 0 155 0 0 155 0 155 155 0 155 0 0 -155 0
-155 160 0 160 0 0 470 0 470 -160 0 -160 0 0 -157 0 -158 -155 3 -155 3 0
154 0 155 -155 0 -155 0 0 -470z"/>
</g>
</svg>
